<svg xmlns="http://www.w3.org/2000/svg" xmlns:xlink="http://www.w3.org/1999/xlink" width="500" zoomAndPan="magnify" viewBox="0 0 375 374.999991" height="500" preserveAspectRatio="xMidYMid meet" version="1.0"><defs><g/><clipPath id="0201b9ed1a"><path d="M 9.4375 0 L 355.535156 0 L 355.535156 364.441406 L 9.4375 364.441406 Z M 9.4375 0 " clip-rule="nonzero"/></clipPath><clipPath id="8ed1fdd7c9"><path d="M 16.9375 0 L 348.035156 0 C 352.175781 0 355.535156 3.359375 355.535156 7.5 L 355.535156 356.941406 C 355.535156 361.082031 352.175781 364.441406 348.035156 364.441406 L 16.9375 364.441406 C 12.796875 364.441406 9.4375 361.082031 9.4375 356.941406 L 9.4375 7.5 C 9.4375 3.359375 12.796875 0 16.9375 0 Z M 16.9375 0 " clip-rule="nonzero"/></clipPath><clipPath id="2b0e412f6b"><path d="M 9.441406 0 L 355.1875 0 L 355.1875 364.5 L 9.441406 364.5 Z M 9.441406 0 " clip-rule="nonzero"/></clipPath><clipPath id="98c9087633"><path d="M 16.941406 0 L 348.027344 0 C 352.167969 0 355.527344 3.359375 355.527344 7.5 L 355.527344 356.929688 C 355.527344 361.070312 352.167969 364.429688 348.027344 364.429688 L 16.941406 364.429688 C 12.796875 364.429688 9.441406 361.070312 9.441406 356.929688 L 9.441406 7.5 C 9.441406 3.359375 12.796875 0 16.941406 0 Z M 16.941406 0 " clip-rule="nonzero"/></clipPath></defs><g clip-path="url(#0201b9ed1a)"><g clip-path="url(#8ed1fdd7c9)"><path fill="#ffffff" d="M 9.4375 0 L 355.535156 0 L 355.535156 364.441406 L 9.4375 364.441406 Z M 9.4375 0 " fill-opacity="1" fill-rule="nonzero"/></g></g><g clip-path="url(#2b0e412f6b)"><g clip-path="url(#98c9087633)"><path stroke-linecap="butt" transform="matrix(0.75, 0, 0, 0.75, 9.440801, -0.000000000000021316)" fill="none" stroke-linejoin="miter" d="M 10.000808 0.000000000000028422 L 451.448753 0.000000000000028422 C 456.969587 0.000000000000028422 461.448754 4.479167 461.448754 10.000001 L 461.448754 475.906281 C 461.448754 481.427115 456.969587 485.906282 451.448753 485.906282 L 10.000808 485.906282 C 4.474766 485.906282 0.000806893 481.427115 0.000806893 475.906281 L 0.000806893 10.000001 C 0.000806893 4.479167 4.474766 0.000000000000028422 10.000808 0.000000000000028422 Z M 10.000808 0.000000000000028422 " stroke="#000000" stroke-width="4" stroke-opacity="1" stroke-miterlimit="4"/></g></g><g fill="#000000" fill-opacity="1"><g transform="translate(64.029339, 264.179752)"><g><path d="M 82.703125 2.234375 C 61.210938 2.234375 45.273438 -2.867188 34.890625 -13.078125 C 24.503906 -23.285156 19.3125 -38.421875 19.3125 -58.484375 L 19.3125 -156.015625 L 49.515625 -156.015625 L 49.515625 -58.6875 C 49.515625 -47.3125 52.253906 -38.773438 57.734375 -33.078125 C 63.210938 -27.390625 71.535156 -24.546875 82.703125 -24.546875 C 104.828125 -24.546875 115.890625 -35.925781 115.890625 -58.6875 L 115.890625 -156.015625 L 146.09375 -156.015625 L 146.09375 -58.484375 C 146.09375 -38.421875 140.894531 -23.285156 130.5 -13.078125 C 120.113281 -2.867188 104.179688 2.234375 82.703125 2.234375 Z M 82.703125 2.234375 "/></g></g></g><g fill="#000000" fill-opacity="1"><g transform="translate(229.425898, 264.179752)"><g><path d="M 51.109375 0 L 20.28125 0 L 20.28125 -156.015625 L 51.109375 -156.015625 Z M 51.109375 0 "/></g></g></g></svg>